<?xml version="1.0" standalone="no"?>
<!DOCTYPE svg PUBLIC "-//W3C//DTD SVG 20010904//EN"
 "http://www.w3.org/TR/2001/REC-SVG-20010904/DTD/svg10.dtd">
<svg version="1.0" xmlns="http://www.w3.org/2000/svg"
 width="2100.000000pt" height="2100.000000pt" viewBox="0 0 2100.000000 2100.000000"
 preserveAspectRatio="xMidYMid meet">
<metadata>
Created by potrace 1.11, written by Peter Selinger 2001-2013
</metadata>
<g transform="translate(0.000000,2100.000000) scale(0.100000,-0.100000)"
fill="#000000" stroke="none">
<path d="M9095 15225 c-112 -16 -165 -25 -187 -31 -10 -3 -30 -7 -45 -10 -55
-10 -224 -65 -320 -105 -114 -47 -293 -139 -293 -150 0 -4 9 -28 19 -52 l20
-46 48 19 c118 45 250 65 428 65 219 0 310 -8 478 -40 150 -30 341 -109 572
-237 313 -174 640 -432 990 -783 164 -163 247 -254 515 -554 26 -30 30 -42 30
-95 4 -423 -1 -5397 -4 -5415 -29 -136 -75 -222 -165 -311 -125 -123 -251
-170 -464 -173 l-131 -2 -1 -47 -1 -48 1453 0 1453 0 0 50 0 49 -128 0 c-145
0 -211 11 -297 51 -161 74 -286 222 -326 390 -10 44 -13 438 -13 2047 l-1
1992 34 -32 c19 -18 44 -43 57 -57 12 -14 41 -45 64 -70 55 -59 272 -290 333
-354 27 -28 103 -109 170 -181 67 -71 156 -165 198 -210 74 -78 112 -118 226
-240 32 -33 102 -108 157 -166 87 -91 160 -168 373 -395 156 -166 294 -313
328 -349 62 -65 298 -315 339 -360 21 -22 68 -72 104 -110 108 -115 354 -375
396 -419 21 -23 91 -97 156 -166 65 -69 137 -145 160 -170 23 -25 101 -108
174 -184 165 -175 193 -206 269 -286 33 -36 122 -130 198 -210 75 -80 152
-161 171 -181 122 -130 281 -300 328 -349 30 -31 107 -113 170 -181 262 -282
569 -577 765 -735 313 -253 628 -449 920 -573 55 -23 109 -46 120 -51 19 -9
200 -70 220 -74 6 -2 29 -8 52 -14 46 -14 208 -48 266 -56 189 -29 542 -29
702 0 38 6 215 43 235 49 203 55 490 166 490 190 0 5 -7 28 -16 50 l-15 42
-92 -19 c-51 -9 -121 -21 -157 -25 -84 -10 -404 -10 -495 0 -115 12 -339 63
-415 94 -8 4 -17 7 -20 7 -20 4 -186 76 -310 134 -179 84 -436 260 -705 483
-141 118 -566 545 -744 749 -158 181 -198 224 -297 324 l-102 103 0 2734 c0
2223 2 2747 13 2804 43 231 230 422 457 469 43 9 81 16 85 15 5 -1 56 -1 116
0 l107 1 0 48 0 49 -1452 -1 -1452 -1 -2 -43 c-1 -25 4 -45 10 -47 6 -2 72 -6
146 -8 104 -4 150 -10 200 -27 153 -52 277 -160 350 -308 63 -127 59 9 60
-2207 l0 -2020 -57 61 c-32 34 -112 119 -178 189 -66 71 -136 145 -155 165
-40 41 -261 277 -310 330 -18 19 -98 105 -179 190 -238 253 -290 308 -421 447
-36 38 -124 132 -197 208 -72 77 -150 160 -173 185 -23 25 -70 74 -103 110
-34 36 -123 130 -197 209 -74 79 -155 165 -180 191 -25 26 -74 78 -109 116
-36 38 -124 132 -197 209 -73 77 -151 160 -174 185 -54 58 -243 259 -488 519
-65 68 -128 135 -141 150 -25 27 -255 272 -326 346 -22 23 -73 78 -114 121
-140 149 -326 347 -371 395 -25 26 -99 104 -165 175 -163 173 -405 412 -516
509 -32 28 -221 188 -264 223 -51 42 -249 186 -330 239 -386 256 -796 429
-1145 483 -41 6 -86 14 -100 16 -58 12 -400 10 -485 -1z"/>
<path d="M899 14776 c-2 -2 -31 -7 -64 -11 -33 -3 -82 -11 -110 -16 -27 -6
-61 -13 -75 -15 -14 -3 -59 -14 -100 -25 -41 -11 -82 -21 -90 -24 -94 -24
-363 -129 -368 -143 -2 -6 1 -28 7 -49 l10 -38 133 0 c182 0 267 -14 434 -70
90 -30 166 -64 293 -130 40 -21 177 -114 236 -159 119 -92 251 -218 390 -372
115 -127 143 -160 216 -249 35 -43 72 -88 81 -100 22 -26 121 -158 179 -237
119 -163 296 -437 404 -624 52 -92 51 -67 16 -294 -6 -36 -13 -87 -16 -115 -3
-27 -7 -59 -9 -70 -5 -27 -14 -90 -21 -145 -4 -25 -8 -56 -10 -70 -2 -14 -7
-45 -10 -70 -3 -25 -8 -56 -10 -70 -2 -14 -7 -45 -10 -70 -3 -25 -8 -56 -10
-70 -2 -14 -6 -45 -10 -70 -6 -50 -16 -117 -20 -141 -2 -9 -6 -40 -10 -69 -4
-29 -8 -61 -10 -70 -2 -9 -6 -41 -10 -70 -4 -29 -8 -61 -10 -70 -3 -15 -7 -47
-20 -150 -4 -32 -13 -93 -20 -131 -2 -9 -6 -40 -10 -70 -3 -30 -10 -79 -15
-109 -5 -30 -12 -75 -15 -100 -6 -45 -13 -92 -20 -140 -3 -22 -10 -73 -31
-220 -2 -19 -9 -62 -14 -95 -5 -33 -12 -80 -15 -105 -3 -25 -8 -56 -10 -70 -2
-14 -6 -47 -9 -75 -4 -27 -8 -61 -11 -75 -6 -33 -12 -74 -20 -135 -9 -69 -15
-106 -20 -135 -2 -14 -7 -45 -10 -70 -3 -25 -7 -54 -9 -66 -2 -12 -7 -45 -11
-75 -3 -30 -10 -79 -15 -109 -5 -30 -12 -80 -16 -110 -9 -73 -17 -127 -30
-209 -2 -13 -6 -45 -10 -70 -3 -25 -8 -59 -11 -76 -3 -16 -6 -39 -7 -50 -2
-11 -7 -45 -11 -75 -5 -30 -8 -58 -7 -62 1 -4 -3 -31 -8 -60 -5 -29 -12 -69
-14 -88 -3 -19 -9 -66 -15 -105 -6 -38 -13 -90 -16 -115 -19 -155 -47 -305
-66 -355 -61 -163 -172 -283 -338 -365 -97 -48 -163 -62 -325 -69 l-149 -6 0
-45 0 -45 1001 -3 c666 -1 1002 1 1003 8 1 5 1 19 1 30 0 49 3 48 -101 48
-117 0 -175 16 -254 71 -144 101 -193 212 -166 380 4 25 10 75 14 111 4 36 9
73 10 82 2 9 7 48 10 85 4 37 9 75 10 83 2 9 6 43 10 75 4 33 15 130 26 215
19 152 23 191 34 288 3 26 8 63 11 82 3 19 7 49 9 65 2 17 6 55 9 85 4 30 8
66 11 80 2 14 7 52 10 85 3 33 7 71 9 85 3 14 7 52 11 85 3 33 8 67 10 75 2 8
7 46 10 85 4 38 8 72 10 75 1 3 6 37 9 76 4 39 8 80 10 90 2 11 7 48 11 84 4
36 8 72 10 80 2 8 6 44 10 80 4 36 9 73 10 82 2 10 7 50 10 90 3 39 8 74 10
77 1 3 6 40 10 81 4 41 8 77 10 80 1 3 6 36 10 73 3 37 8 76 10 85 1 9 6 46
10 82 3 36 8 76 10 90 2 14 7 50 10 80 3 30 8 66 10 80 2 14 6 50 10 80 11 99
16 145 20 170 2 14 6 50 10 80 3 30 9 73 12 95 4 22 7 47 8 55 2 26 19 165 21
173 1 4 2 24 3 44 1 35 2 36 14 18 8 -11 53 -96 102 -190 48 -93 91 -174 95
-180 4 -5 40 -73 80 -150 74 -143 133 -255 200 -380 35 -65 61 -115 191 -362
27 -51 71 -135 98 -185 59 -113 141 -268 191 -363 21 -38 66 -124 100 -190 34
-66 77 -147 95 -180 18 -33 65 -123 105 -200 40 -77 80 -153 90 -170 9 -16 48
-88 85 -160 37 -71 82 -157 100 -190 18 -33 61 -114 95 -180 69 -132 114 -217
182 -345 25 -47 74 -139 108 -205 35 -66 75 -142 90 -170 15 -27 57 -106 93
-175 36 -69 93 -177 126 -240 34 -63 80 -152 103 -197 44 -85 53 -92 111 -84
25 3 27 6 27 55 1 101 42 286 100 451 79 222 115 289 625 1170 32 55 69 120
83 145 14 25 43 73 64 108 21 34 38 64 38 66 0 1 39 70 86 152 48 82 98 169
112 194 14 25 33 57 43 72 11 14 19 28 19 31 0 2 29 55 65 116 36 62 65 114
65 116 0 2 16 27 35 56 19 30 35 57 35 62 0 5 8 21 19 35 10 15 29 47 43 72
31 55 214 373 239 415 10 17 24 41 32 55 23 43 317 552 351 610 18 30 50 86
71 123 35 64 46 74 51 44 8 -55 17 -105 30 -182 8 -49 17 -101 19 -115 2 -14
7 -41 10 -60 3 -19 10 -57 15 -85 5 -27 12 -68 15 -90 9 -53 11 -69 46 -275
17 -96 32 -186 34 -200 2 -14 9 -56 15 -95 7 -38 14 -83 16 -100 3 -16 9 -50
14 -75 5 -25 16 -90 25 -145 8 -55 17 -111 20 -125 3 -14 19 -106 35 -205 38
-224 40 -233 46 -270 2 -16 9 -55 14 -85 5 -30 12 -70 15 -87 7 -46 10 -64 45
-273 17 -102 33 -198 36 -215 45 -286 182 -767 304 -1075 121 -304 314 -658
467 -855 13 -16 27 -35 31 -40 102 -142 385 -431 557 -568 446 -357 885 -544
1425 -606 75 -9 517 -7 555 2 11 3 50 8 87 11 37 4 77 9 90 11 13 2 46 6 73
10 40 5 128 22 310 59 6 1 42 10 82 21 l71 18 4 49 3 48 -50 0 c-84 1 -256 9
-310 15 -453 51 -814 221 -1114 525 -253 257 -500 664 -670 1105 -24 61 -47
119 -51 130 -31 72 -158 498 -175 583 -1 9 -8 35 -14 58 -6 22 -15 63 -21 90
-5 27 -19 94 -31 149 -11 55 -22 114 -25 130 -3 17 -14 77 -24 135 -22 118
-28 150 -36 199 -3 18 -8 43 -10 55 -2 11 -16 89 -30 171 -14 83 -38 222 -54
310 -16 88 -31 174 -34 190 -2 17 -18 107 -35 200 -39 215 -39 213 -51 285 -6
33 -12 70 -14 82 -4 22 -14 77 -22 123 -2 11 -13 74 -25 139 -11 66 -22 122
-23 125 -2 3 -7 26 -10 51 -3 25 -8 56 -11 70 -3 14 -7 39 -10 55 -2 17 -8 53
-14 80 -5 28 -12 70 -16 95 -3 25 -8 52 -10 60 -2 8 -6 29 -9 45 -5 31 -24
140 -51 288 -8 45 -17 98 -19 117 -3 19 -9 55 -15 80 -5 25 -19 99 -30 165
-12 66 -23 130 -25 141 -2 12 -7 37 -10 55 -3 19 -14 86 -26 149 -11 63 -22
129 -25 145 -3 17 -10 53 -15 80 -5 28 -12 66 -14 85 -7 45 -14 83 -26 145 -6
28 -12 64 -15 80 -8 53 -16 98 -35 200 -10 55 -21 116 -24 135 -3 19 -8 45
-10 56 -5 23 -13 76 -22 134 -3 19 -7 42 -9 50 -3 8 -7 32 -11 54 -3 21 -8 48
-10 60 -2 11 -11 62 -19 111 -9 50 -20 110 -25 135 -5 25 -12 61 -15 80 -2 19
-7 46 -9 60 -3 14 -14 77 -25 140 -23 130 -25 143 -52 295 -11 61 -23 126 -26
147 -5 32 -9 37 -37 40 -17 2 -38 2 -46 0 -12 -2 -114 -168 -281 -461 -15 -25
-89 -154 -166 -286 -77 -132 -212 -366 -302 -520 -89 -154 -166 -287 -171
-295 -13 -22 -158 -271 -367 -630 -85 -147 -287 -494 -471 -810 -46 -80 -95
-164 -108 -187 -14 -24 -75 -130 -137 -236 -63 -106 -117 -200 -121 -208 -4
-8 -12 -23 -19 -34 -31 -52 -335 -574 -562 -967 -44 -76 -82 -138 -85 -138 -3
0 -13 15 -21 33 -9 17 -45 86 -81 152 -36 66 -89 165 -118 220 -29 55 -85 161
-125 235 -67 126 -99 186 -213 400 -69 131 -122 230 -152 285 -15 28 -51 95
-80 150 -29 55 -63 118 -75 140 -12 22 -50 93 -84 158 -34 65 -71 135 -83 155
-11 20 -43 80 -70 132 -28 52 -64 120 -80 150 -16 30 -54 102 -85 160 -31 58
-72 134 -91 170 -19 36 -49 92 -67 125 -18 33 -58 110 -90 170 -32 61 -65 124
-75 140 -9 17 -42 77 -73 135 -30 58 -71 134 -90 170 -18 36 -58 110 -87 165
-314 596 -825 1204 -1296 1542 -300 216 -681 389 -989 452 -122 25 -130 26
-290 47 -40 5 -482 14 -486 10z"/>
</g>
</svg>
